<svg id="visual" viewBox="0 0 450 900" width="450" height="900" xmlns="http://www.w3.org/2000/svg" xmlns:xlink="http://www.w3.org/1999/xlink" version="1.1"><rect x="0" y="0" width="450" height="900" fill="#ffffff"></rect><path d="M0 605L75 634L150 601L225 600L300 589L375 554L450 589L450 901L375 901L300 901L225 901L150 901L75 901L0 901Z" fill="#000000"></path><path d="M0 683L75 672L150 647L225 679L300 682L375 650L450 642L450 901L375 901L300 901L225 901L150 901L75 901L0 901Z" fill="#110e0e"></path><path d="M0 730L75 682L150 725L225 686L300 745L375 706L450 696L450 901L375 901L300 901L225 901L150 901L75 901L0 901Z" fill="#1a1818"></path><path d="M0 762L75 774L150 741L225 764L300 745L375 757L450 751L450 901L375 901L300 901L225 901L150 901L75 901L0 901Z" fill="#232121"></path><path d="M0 802L75 835L150 824L225 812L300 812L375 814L450 837L450 901L375 901L300 901L225 901L150 901L75 901L0 901Z" fill="#2c2a2a"></path></svg>