<svg id="visual" viewBox="0 0 1920 300" width="1920" height="300" xmlns="http://www.w3.org/2000/svg" xmlns:xlink="http://www.w3.org/1999/xlink" version="1.1"><rect x="0" y="0" width="1920" height="300" fill="#ffffff"></rect><path d="M0 119L213 61L427 64L640 93L853 111L1067 70L1280 132L1493 90L1707 146L1920 67L1920 301L1707 301L1493 301L1280 301L1067 301L853 301L640 301L427 301L213 301L0 301Z" fill="#000000"></path><path d="M0 109L213 126L427 185L640 140L853 146L1067 165L1280 176L1493 185L1707 192L1920 156L1920 301L1707 301L1493 301L1280 301L1067 301L853 301L640 301L427 301L213 301L0 301Z" fill="#131313"></path><path d="M0 197L213 214L427 198L640 168L853 218L1067 205L1280 225L1493 191L1707 188L1920 228L1920 301L1707 301L1493 301L1280 301L1067 301L853 301L640 301L427 301L213 301L0 301Z" fill="#1f1f1f"></path><path d="M0 232L213 213L427 214L640 232L853 213L1067 224L1280 261L1493 223L1707 245L1920 262L1920 301L1707 301L1493 301L1280 301L1067 301L853 301L640 301L427 301L213 301L0 301Z" fill="#2c2c2c"></path></svg>