<svg id="visual" viewBox="0 0 900 300" width="900" height="300" xmlns="http://www.w3.org/2000/svg" xmlns:xlink="http://www.w3.org/1999/xlink" version="1.1"><rect x="0" y="0" width="900" height="300" fill="#ffffff"></rect><path d="M0 177L129 203L257 175L386 191L514 197L643 219L771 199L900 219L900 301L771 301L643 301L514 301L386 301L257 301L129 301L0 301Z" fill="#000000"></path><path d="M0 208L129 202L257 236L386 211L514 208L643 237L771 207L900 232L900 301L771 301L643 301L514 301L386 301L257 301L129 301L0 301Z" fill="#161211"></path><path d="M0 228L129 254L257 250L386 247L514 242L643 234L771 231L900 252L900 301L771 301L643 301L514 301L386 301L257 301L129 301L0 301Z" fill="#211e1d"></path><path d="M0 240L129 262L257 267L386 254L514 267L643 264L771 267L900 266L900 301L771 301L643 301L514 301L386 301L257 301L129 301L0 301Z" fill="#2d2a29"></path><path d="M0 263L129 285L257 266L386 282L514 269L643 283L771 283L900 271L900 301L771 301L643 301L514 301L386 301L257 301L129 301L0 301Z" fill="#3a3736"></path></svg>